<mxfile host="app.diagrams.net" modified="2023-10-31T15:10:23.655Z" agent="Mozilla/5.0 (Windows NT 10.0; Win64; x64; rv:109.0) Gecko/20100101 Firefox/118.0" version="22.0.8" etag="a3W-6TwwpSoMRfWs-OK9" type="github">
  <diagram name="Page-1" id="g4rA1UfjoHgd0uxCYoGI">
    <mxGraphModel>
      <root>
        <mxCell id="0" />
        <mxCell id="1" parent="0" />
      </root>
    </mxGraphModel>
  </diagram>
</mxfile>
